<svg width="1140" height="334" viewBox="0 0 1140 334" fill="none" xmlns="http://www.w3.org/2000/svg">
<rect x="521.127" y="26.1716" width="92.4857" height="210.981" fill="#F95429"/>
<path d="M576.564 237.063L522.416 268.106L522.121 206.288L576.564 237.063Z" fill="#F95429"/>
<path d="M558.769 237.102L613.032 206.164L613.097 267.982L558.769 237.102Z" fill="#F95429"/>
<rect x="32" width="1075" height="85" fill="#F7B238"/>
<ellipse cx="1103" cy="42.5" rx="37" ry="42.5" fill="#F7B238"/>
<ellipse cx="26" cy="42.5" rx="26" ry="42.5" fill="#E09124"/>
<path d="M10.0097 49.5839C10.0635 54.2641 10.6648 58.8955 11.7794 63.2135C12.894 67.5316 14.5001 71.4517 16.5058 74.7502C18.5115 78.0487 20.8777 80.6609 23.4692 82.4376C26.0607 84.2144 28.8269 85.1209 31.6096 85.1055L31.2001 49.4661L10.0097 49.5839Z" fill="#B27214"/>
<path d="M52.3766 49.3544C52.4285 54.0346 51.9318 58.6718 50.9149 63.0012C49.8979 67.3306 48.3806 71.2674 46.4496 74.5868C44.5186 77.9062 42.2117 80.5433 39.6607 82.3474C37.1096 84.1515 34.3643 85.0874 31.5815 85.1015L31.186 49.4621L52.3766 49.3544Z" fill="#B27214"/>
<path d="M606.646 84.4218C614.416 84.4222 621.872 79.9755 627.372 72.0598C632.871 64.1441 635.965 53.408 635.972 42.2131C635.98 31.0183 632.9 20.2818 627.41 12.3656C621.921 4.44938 614.471 0.00187745 606.701 0.00148434L606.673 42.2117L606.646 84.4218Z" fill="#F95429"/>
<rect x="517.359" width="96.512" height="84.7463" fill="#F95429"/>
<path d="M516.499 84.4219C524.27 84.4223 531.725 79.9755 537.225 72.0599C542.724 64.1442 545.818 53.4081 545.825 42.2132C545.832 31.0184 542.752 20.2819 537.263 12.3657C531.773 4.44946 524.323 0.0019397 516.553 0.001536L516.526 42.2117L516.499 84.4219Z" fill="#F7B238"/>
<rect x="483.6" y="84.7463" width="64.8" height="213.112" fill="#F95429"/>
<path d="M522.442 297.768L484.503 329.125L484.297 266.682L522.442 297.768Z" fill="#F95429"/>
<path d="M509.974 297.808L547.993 266.556L548.038 328.999L509.974 297.808Z" fill="#F95429"/>
</svg>
