{
	"asset":{
		"generator":"Khronos glTF Blender I/O v3.6.27",
		"version":"2.0"
	},
	"scene":0,
	"scenes":[
		{
			"name":"Scene",
			"nodes":[
				0,
				1
			]
		}
	],
	"nodes":[
		{
			"mesh":0,
			"name":"miscJoined",
			"translation":[
				-0.7428503036499023,
				4.54684591293335,
				-6.132484436035156
			]
		},
		{
			"mesh":1,
			"name":"poleLight",
			"translation":[
				-4.00212287902832,
				4.617471694946289,
				-6.14261531829834
			]
		}
	],
	"meshes":[
		{
			"name":"Sphere.005",
			"primitives":[
				{
					"attributes":{
						"POSITION":0,
						"NORMAL":1,
						"TEXCOORD_0":2
					},
					"indices":3
				}
			]
		},
		{
			"name":"Sphere.002",
			"primitives":[
				{
					"attributes":{
						"POSITION":4,
						"NORMAL":5,
						"TEXCOORD_0":6
					},
					"indices":7
				}
			]
		}
	],
	"accessors":[
		{
			"bufferView":0,
			"componentType":5126,
			"count":2038,
			"max":[
				-2.805774211883545,
				2.8981847763061523,
				2.466381072998047
			],
			"min":[
				-3.713286876678467,
				-4.52941370010376,
				-0.29992803931236267
			],
			"type":"VEC3"
		},
		{
			"bufferView":1,
			"componentType":5126,
			"count":2038,
			"type":"VEC3"
		},
		{
			"bufferView":2,
			"componentType":5126,
			"count":2038,
			"type":"VEC2"
		},
		{
			"bufferView":3,
			"componentType":5123,
			"count":3270,
			"type":"SCALAR"
		},
		{
			"bufferView":4,
			"componentType":5126,
			"count":988,
			"max":[
				0.46043553948402405,
				0.4217698872089386,
				2.646855115890503
			],
			"min":[
				-0.4611659348011017,
				-0.4216879904270172,
				-0.46049144864082336
			],
			"type":"VEC3"
		},
		{
			"bufferView":5,
			"componentType":5126,
			"count":988,
			"type":"VEC3"
		},
		{
			"bufferView":6,
			"componentType":5126,
			"count":988,
			"type":"VEC2"
		},
		{
			"bufferView":7,
			"componentType":5123,
			"count":5184,
			"type":"SCALAR"
		}
	],
	"bufferViews":[
		{
			"buffer":0,
			"byteLength":24456,
			"byteOffset":0,
			"target":34962
		},
		{
			"buffer":0,
			"byteLength":24456,
			"byteOffset":24456,
			"target":34962
		},
		{
			"buffer":0,
			"byteLength":16304,
			"byteOffset":48912,
			"target":34962
		},
		{
			"buffer":0,
			"byteLength":6540,
			"byteOffset":65216,
			"target":34963
		},
		{
			"buffer":0,
			"byteLength":11856,
			"byteOffset":71756,
			"target":34962
		},
		{
			"buffer":0,
			"byteLength":11856,
			"byteOffset":83612,
			"target":34962
		},
		{
			"buffer":0,
			"byteLength":7904,
			"byteOffset":95468,
			"target":34962
		},
		{
			"buffer":0,
			"byteLength":10368,
			"byteOffset":103372,
			"target":34963
		}
	],
	"buffers":[
		{
			"byteLength":113740,
			"uri":"data:application/octet-stream;base64,"
		}
	]
}
